{"title":"The Hangover Part III 2013 R6 PPVRiP WEBRiP XViD - JUSTiCE [BTUn","uid":8565050,"size":1926613791,"categoryP":"video","categoryS":"movies","magnet":"?xt=urn:btih:f3731da9a39b0d73268fbf09009c81192e275fcc&amp;dn=The+Hangover+Part+III+2013+R6+PPVRiP+WEBRiP+XViD+-+JUSTiCE+%5BBTUn&amp;tr=udp%3A%2F%2Ftracker.openbittorrent.com%3A80&amp;tr=udp%3A%2F%2Fopen.demonii.com%3A1337&amp;tr=udp%3A%2F%2Ftracker.coppersurfer.tk%3A6969&amp;tr=udp%3A%2F%2Fexodus.desync.com%3A6969","seeders":4,"leechers":0,"uploader":"R0thschild","files":4,"time":1370979559,"description":"              ***********************************************\n\n                BTUnhide - Largest Bittorrent Community\n      \n                         &lt;a href=&quot; http://btunhide.com/&quot; rel=&quot;nofollow&quot; target=&quot;_NEW&quot;&gt; http://btunhide.com/&lt;/a&gt;\n    \n              ***********************************************\nThe Hangover Part III 2013 R6 PPVRiP WEBRiP XViD - JUSTiCE\n\nSOURCE: video - smy / Youtube\naudio - UNIQUE / a friend\n\nVideo and audio both cleaned and given justice\nCheck sample and see\n\nWhy the tag ?? simples,users moan its not that,its not this ...so best to be safe \nAnyway ..i was told in may that it was due for a ppv showing early june and hey presto my friend\nwas right,so in that case this could well be a chinese ppv rip ???\n\nRight took smys video and cleaned it up some..had to use a HQ smoother to remove the noise but able me\nto keep some sharpness still\nOh blurred the one logo in the top right corner,but subs were too big to blur or crop \nAlso slightly tweaked contrast,brightness,colouring etc....Once done i append the youtube ending to the video\nAudio i stuck with uniques line and only added an odd -100ms offset a few times before finally cleaning it in adobe\nAudio once again for the youtube clip came from an old pal \n\nYes the video is clearer and holds contrast/brightness/colour levels better than the TS release,but downside was and is\nthe subs that are HC to this video.Some won't mind,some will\nEither way we've now released both so users can take their pick\n\nVideo\nID: 0\nFormat: MPEG-4 Visual\nFormat profile: Advanced Simple@L5\nFormat settings, BVOP: 2\nFormat settings, QPel: No\nFormat settings, GMC: No warppoints\nFormat settings, Matrix: Default (MPEG)\nMuxing mode: Packed bitstream\nCodec ID: XVID\nCodec ID/Hint: XviD\nDuration: 1h 39mn\nBit rate: 2 409 Kbps\nWidth: 720 pixels\nHeight: 304 pixels\nDisplay aspect ratio: 2.35:1\nFrame rate: 23.976 fps\nColor space: YUV\nChroma subsampling: 4:2:0\nBit depth: 8 bits\nScan type: Progressive\nCompression mode: Lossy\nBits/(Pixel*Frame): 0.459\nStream size: 1.68 GiB (95%)\nWriting library: XviD 64\n\nAudio\nID: 1\nFormat: MPEG Audio\nFormat version: Version 1\nFormat profile: Layer 3\nMode: Joint stereo\nMode extension: MS Stereo\nCodec ID: 55\nCodec ID/Hint: MP3\nDuration: 1h 39mn\nBit rate mode: Constant\nBit rate: 128 Kbps\nChannel(s): 2 channels\nSampling rate: 48.0 KHz\nCompression mode: Lossy\nStream size: 91.4 MiB (5%)\nAlignment: Split accross interleaves\nInterleave, duration: 42 ms (1.00 video frame)\nInterleave, preload duration: 500 ms \n &lt;a href=&quot;\nhttp://imgsure.com/?p=226790&quot; rel=&quot;nofollow&quot; target=&quot;_NEW&quot;&gt;\nhttp://imgsure.com/?p=226790&lt;/a&gt; &lt;a href=&quot;\nhttp://imgsure.com/?p=964213&quot; rel=&quot;nofollow&quot; target=&quot;_NEW&quot;&gt;\nhttp://imgsure.com/?p=964213&lt;/a&gt; &lt;a href=&quot;\nhttp://imgsure.com/?p=701359&quot; rel=&quot;nofollow&quot; target=&quot;_NEW&quot;&gt;\nhttp://imgsure.com/?p=701359&lt;/a&gt;","torrent":{"xt":"urn:btih:f3731da9a39b0d73268fbf09009c81192e275fcc","amp;dn":"The+Hangover+Part+III+2013+R6+PPVRiP+WEBRiP+XViD+-+JUSTiCE+%5BBTUn","amp;tr":["udp%3A%2F%2Ftracker.openbittorrent.com%3A80","udp%3A%2F%2Fopen.demonii.com%3A1337","udp%3A%2F%2Ftracker.coppersurfer.tk%3A6969","udp%3A%2F%2Fexodus.desync.com%3A6969"],"infoHash":"f3731da9a39b0d73268fbf09009c81192e275fcc","infoHashBuffer":{"type":"Buffer","data":[243,115,29,169,163,155,13,115,38,143,191,9,0,156,129,25,46,39,95,204]},"announce":[],"urlList":[]}}